# xmcd CD database file
#
# Track frame offsets:
#	150
#	44755
#	70932
#	88334
#	109823
#	134970
#	161892
#	184541
#	237941
#
# Disc length: 3962 seconds
#
# Revision: 0
# Processed by: cddbd v1.5.1PL0 Copyright (c) Steve Scherf et al.
# Submitted via: CDex 1.51
#
DISCID=8a0f7809
DTITLE=John Dyson - Beyond The Gates
DYEAR=1995
DGENRE=New Age
TTITLE0=State-Line Transfer
TTITLE1=Rainforest Dawn
TTITLE2=Beyond The Gates (Part 1)
TTITLE3=Beyond The Gates (Part 2)
TTITLE4=Beyond The Gates (Part 3)
TTITLE5=The Beach And The City
TTITLE6=A Place To Rest
TTITLE7=Wild Horses (Wouldn't...)
TTITLE8=Home (Into The Light)
EXTD=YEAR: 1995
EXTT0=
EXTT1=
EXTT2=
EXTT3=
EXTT4=
EXTT5=
EXTT6=
EXTT7=
EXTT8=
PLAYORDER=
